<?xml version="1.0" standalone="no"?><!DOCTYPE svg PUBLIC "-//W3C//DTD SVG 1.1//EN" "http://www.w3.org/Graphics/SVG/1.1/DTD/svg11.dtd"><svg t="1719740814138" class="icon" viewBox="0 0 1024 1024" version="1.1" xmlns="http://www.w3.org/2000/svg" p-id="13649" width="128" height="128" xmlns:xlink="http://www.w3.org/1999/xlink"><path d="M720.145067 420.113067c8.192 19.933867 9.693867 28.808533 17.066666 44.373333 6.007467 12.6976 12.970667 22.050133 22.459734 28.8768 19.319467 14.062933 43.690667 14.609067 73.3184 14.609067h179.336533a511.112533 511.112533 0 0 0-146.909867-359.150934A498.756267 498.756267 0 0 0 510.634667 0C377.514667 0 249.856 53.521067 155.784533 148.821333A511.112533 511.112533 0 0 0 8.874667 507.904h179.336533c29.627733 0 54.0672-0.477867 73.386667-14.5408 9.489067-6.826667 16.452267-16.1792 22.391466-28.808533 7.3728-15.633067 9.0112-24.576 17.066667-44.4416a226.781867 226.781867 0 0 1 209.578667-141.7216c91.682133 0 174.421333 55.978667 209.5104 141.7216m238.250666 312.797866a504.149333 504.149333 0 0 1-187.1872 207.325867l-200.704-203.434667c-23.7568-24.098133-39.867733-38.912-59.869866-38.912-20.002133 0-36.181333 14.813867-59.869867 38.912l-200.704 203.434667A504.354133 504.354133 0 0 1 62.805333 732.910933c59.392-60.074667 118.715733-120.285867 177.9712-180.360533 17.749333-18.0224 30.378667-30.3104 48.810667-37.341867 18.432-7.031467 38.229333-7.236267 66.901333-7.236266h308.224c28.672 0 48.605867 0.2048 66.901334 7.236266 18.500267 7.031467 31.1296 19.319467 48.810666 37.341867 59.392 60.074667 118.647467 120.2176 177.9712 180.360533" fill="#2c2c2c" p-id="13650"></path></svg>