<?xml version="1.0" standalone="no"?><!DOCTYPE svg PUBLIC "-//W3C//DTD SVG 1.1//EN" "http://www.w3.org/Graphics/SVG/1.1/DTD/svg11.dtd"><svg t="1719744208401" class="icon" viewBox="0 0 1024 1024" version="1.1" xmlns="http://www.w3.org/2000/svg" p-id="34698" width="128" height="128" xmlns:xlink="http://www.w3.org/1999/xlink"><path d="M601.6 667.733333c-36.266667 2.133333-32-17.066667-10.666667-44.8 49.066667-66.133333 140.8-155.733333 145.066667-221.866666 6.4-85.333333-78.933333-110.933333-168.533333-110.933334-61.866667 2.133333-125.866667 19.2-168.533334 34.133334-149.333333 53.333333-243.2 134.4-300.8 228.266666-61.866667 91.733333-42.666667 179.2 89.6 183.466667 100.266667-4.266667 168.533333-32 234.666667-66.133333 0 0-189.866667 53.333333-260.266667 14.933333-8.533333-4.266667-14.933333-10.666667-17.066666-25.6 0-32 53.333333-66.133333 85.333333-76.8v-55.466667c64 21.333333 138.666667 17.066667 202.666667-32 2.133333 6.4 4.266667 12.8 4.266666 21.333334h10.666667c2.133333-21.333333-12.8-44.8-36.266667-44.8 6.4 6.4 12.8 10.666667 14.933334 14.933333-83.2 57.6-162.133333 32-170.666667 29.866667l46.933333-44.8-12.8-32c91.733333-32 166.4-55.466667 292.266667-76.8L554.666667 339.2l14.933333-8.533333c74.666667 21.333333 123.733333 36.266667 121.6 74.666666 0 6.4-4.266667 14.933333-8.533333 23.466667-21.333333 44.8-87.466667 115.2-113.066667 145.066667-17.066667 19.2-34.133333 38.4-46.933333 57.6-12.8 19.2-19.2 36.266667-21.333334 53.333333 2.133333 130.133333 384-61.866667 460.8-110.933333-110.933333 40.533333-230.4 85.333333-360.533333 93.866666z m83.2-298.666666c2.133333 4.266667 4.266667 10.666667 4.266667 19.2 0-6.4-2.133333-12.8-4.266667-19.2z" p-id="34699" fill="#ffffff"></path></svg>